<svg id="tiles" viewBox="0 0 450 1100">
  <defs>
    <g id="tile4">
      <path d="M130 279C148 275 148 275 167 252C156 239 155 239 151 223C172 181 173 180 206 146C240 181 240 180 262 223C257 239 257 239 245 252C265 275 265 275 283 279C288 296 289 296 278 324C261 320 261 320 245 324C219 364 219 365 206 411C194 364 194 364 167 324C152 320 151 320 135 324C125 296 124 296 130 279Z" fill="#EF6D25FF" stroke="none"/>
      <path d="M359 411C346 398 347 398 317 393C311 409 311 410 300 421C253 424 252 424 206 412C218 365 218 366 245 325C260 321 261 321 277 325C288 296 288 296 282 279C294 266 294 266 324 261C329 277 329 277 340 289C388 291 389 291 435 279C401 314 401 313 379 356C384 372 384 372 395 384C376 407 376 408 359 411Z" fill="#FFFFFFFF" stroke="none"/>
      <path d="M359 146C354 164 354 163 364 192C381 188 382 188 397 192C423 232 423 232 436 279C389 291 390 290 341 288C330 276 330 276 325 260C295 265 295 265 283 279C266 274 265 275 246 251C258 239 258 239 262 223C241 180 240 180 207 146C254 159 253 159 301 156C313 144 313 144 317 128C347 133 347 133 359 146Z" fill="#7F7F7FFF" stroke="none"/>
      <path d="M284 301C259 296 252 293 245 281C246 291 244 297 243 305C253 300 256 299 284 301ZM129 301C154 296 161 293 168 281C167 291 170 297 170 305C160 300 157 299 129 301ZM176 211C179 203 172 195 189 184C205 172 173 219 176 211ZM235 211C232 203 239 195 223 184C206 172 238 219 235 211ZM206 407C202 335 204 277 203 212L208 212C208 277 209 335 206 407ZM301 267C309 291 310 298 303 311C312 305 318 304 325 301C315 294 313 292 301 267ZM378 401C361 382 356 377 342 377C351 373 355 368 361 364C362 375 363 378 378 401ZM277 405C269 407 266 417 247 408C229 400 285 404 277 405ZM248 355C242 361 232 359 230 379C228 399 253 348 248 355ZM432 282C372 321 320 349 265 382L262 377C319 345 369 315 432 282ZM263 268C280 249 286 245 300 245C291 240 287 235 281 231C280 242 279 245 263 268ZM340 134C332 159 331 166 339 178C330 172 324 171 317 168C326 162 328 159 340 134ZM395 220C400 226 411 224 413 244C414 264 390 214 395 220ZM366 271C374 272 377 282 396 274C414 265 358 269 366 271ZM211 148C274 180 324 211 381 242L379 247C323 214 271 186 211 148Z" fill="#000" stroke="none"/>
      <animateTransform attributeName="transform" attributeType="XML" type="rotate" values="-180 275 275;-70 275 275;-5 275 275;5 275 275;70 275 275;180 275 275" keyTimes="0;0.2;0.45;0.55;0.8;1" dur="1s" repeatCount="indefinite" />
    </g>
  </defs>
  <path d="M0 0L450 0L450 1000L0 1000Z" fill="#222" stroke="none"/>
  <use href="#tile4" x="-255" y="-160"/>
  <use href="#tile4" x="-25" y="-290"/>
  <use href="#tile4" x="-255" y="102"/>
  <use href="#tile4" x="-25" y="-28"/>
  <use href="#tile4" x="205" y="-158"/>
  <use href="#tile4" x="-255" y="364"/>
  <use href="#tile4" x="-25" y="234"/>
  <use href="#tile4" x="205" y="104"/>
  <use href="#tile4" x="-255" y="626"/>
  <use href="#tile4" x="-25" y="496"/>
  <use href="#tile4" x="205" y="366"/>
  <use href="#tile4" x="-255" y="888"/>
  <use href="#tile4" x="-25" y="758"/>
  <use href="#tile4" x="205" y="628"/>
  <use href="#tile4" x="205" y="890"/>
</svg>
